<svg xmlns="http://www.w3.org/2000/svg" viewBox="0 0 32 40" x="0px" y="0px"><title>Icon</title><g data-name="Layer 2"><path d="M12,26.27H6.67a.93.93,0,0,1-.93-.93V20a.93.93,0,0,1,.93-.93,6.28,6.28,0,0,1,6.27,6.27A.93.93,0,0,1,12,26.27ZM7.6,24.4H11A4.41,4.41,0,0,0,7.6,21Z"/><path d="M18.67,26.27H15.34a.93.93,0,0,1-.93-.93A7.74,7.74,0,0,0,6.67,17.6a.94.94,0,0,1-.94-.93V13.33a.93.93,0,0,1,.93-.93A13,13,0,0,1,19.61,25.33.93.93,0,0,1,18.67,26.27ZM16.23,24.4H17.7A11.09,11.09,0,0,0,7.6,14.3v1.47A9.62,9.62,0,0,1,16.23,24.4Z"/><path d="M25.33,26.27H22a.93.93,0,0,1-.93-.93,14.42,14.42,0,0,0-14.4-14.4A.94.94,0,0,1,5.73,10V6.67a.93.93,0,0,1,.93-.93,19.67,19.67,0,0,1,19.6,19.35h0v.24A.93.93,0,0,1,25.33,26.27ZM22.91,24.4h1.46A17.8,17.8,0,0,0,7.6,7.62V9.09A16.29,16.29,0,0,1,22.91,24.4Z"/><path d="M27.2,30H4.8A2.8,2.8,0,0,1,2,27.2V4.8A2.8,2.8,0,0,1,4.8,2H27.2A2.8,2.8,0,0,1,30,4.8V27.2A2.8,2.8,0,0,1,27.2,30ZM4.8,3.87a.93.93,0,0,0-.93.93V27.2a.93.93,0,0,0,.93.93H27.2a.93.93,0,0,0,.93-.93V4.8a.93.93,0,0,0-.93-.93Z"/></g>></svg>