<svg xmlns="http://www.w3.org/2000/svg" xmlns:xlink="http://www.w3.org/1999/xlink" version="1.1" x="0px" y="0px" viewBox="0 0 48 60" enable-background="new 0 0 48 48" xml:space="preserve"><g><g><polyline fill="none" stroke="#000000" stroke-width="2" stroke-miterlimit="10" points="35.6,13.7 47,13.7 47,45.8 1,45.8     1,13.7 12.2,13.7   "/><polyline fill="none" stroke="#000000" stroke-width="2" stroke-miterlimit="10" points="1,13.7 24,36.7 47,13.7   "/><line fill="none" stroke="#000000" stroke-width="2" stroke-miterlimit="10" x1="17.1" y1="29.7" x2="1" y2="45.8"/><line fill="none" stroke="#000000" stroke-width="2" stroke-miterlimit="10" x1="47" y1="45.8" x2="30.9" y2="29.7"/></g><g><path fill="none" stroke="#000000" stroke-width="2" stroke-miterlimit="10" d="M28.1,8.2c0,0-2.5-0.7-5.6,0.7    c-2.7,1.2-6.7,5.3-4.1,9c1.8,2.5,6.5,1,8.4-2.7c0.2-0.3,0.3-0.6,0.4-0.9L28.1,8.2z"/><path fill="none" stroke="#000000" stroke-width="2" stroke-miterlimit="10" d="M27.2,14.1c-1,4.4,6.3,8.6,7.7,0.3    c1.4-8.2-4.4-12.3-10.2-12.3c-3.9,0-11.8,2.6-11.8,13.2c0,9.2,11.1,11.8,15.5,8.3"/></g></g><text x="0" y="63" fill="#000000" font-size="5px" font-weight="bold" font-family="'Helvetica Neue', Helvetica, Arial-Unicode, Arial, Sans-serif">Created by Creative Stall</text><text x="0" y="68" fill="#000000" font-size="5px" font-weight="bold" font-family="'Helvetica Neue', Helvetica, Arial-Unicode, Arial, Sans-serif">from the Noun Project</text></svg>