<svg xmlns="http://www.w3.org/2000/svg" xmlns:xlink="http://www.w3.org/1999/xlink" version="1.1" x="0px" y="0px" viewBox="0 0 51 63.75" enable-background="new 0 0 51 51" xml:space="preserve"><g><path d="M1.53209,5.81917c-0.05518,0.81738-0.0376,1.64795,0.05176,2.46924c0.09229,0.84229,1.04639,1.47754,2.21924,1.47754   c0.12891,0,0.26025-0.00781,0.39209-0.02441C4.2412,9.73579,4.29271,9.73048,4.33971,9.72481   c0.63611,8.98663,0.28717,14.77155,0.06885,18.31653c-0.20215,3.27637-0.30322,4.92139,0.55908,5.86328   c0.64551,0.70459,1.73193,0.87158,3.27441,0.9126h0.02197c0.05328,0,3.23834-0.01917,7.67957-0.04724   c-1.68579,3.34406-3.52167,6.64368-5.49304,9.82117c-0.26563,0.42871-0.27881,0.9458-0.03516,1.38379   c0.40186,0.72198,1.12506,0.66785,1.22949,0.69531l1.06152-0.0332c1.57959-0.04999,2.80927-1.58252,3.55908-2.93506   l0.84131-1.51874c5.26013-0.38965,10.60834-0.58966,15.90479-0.58966h0.14258l1.16797,2.1084   c0.68945,1.24414,1.4834,2.11816,2.4292,2.67285c0.59766,0.34888,2.33673,0.29639,2.23584,0.29639   c0.49951,0,0.94238-0.26025,1.18457-0.6958c0.73352-1.32007-0.49768-1.2002-5.59198-11.33038   c4.06952-0.02972,7.3902-0.05682,8.78046-0.07489c0.75244-0.00977,2.15234-0.02783,2.85742-1.01514   c0.4751-0.66455,0.45898-1.55127,0.44824-2.13818c-0.05078-2.75391-0.2207-5.56055-0.38525-8.27441   c-0.27808-4.58276-0.55682-9.29657-0.27051-13.89429c2.0069-0.0495,2.39801-0.15411,2.60059-0.27417   c0.72607-0.43018,0.83203-1.81201,0.8877-3.43994c0.01123-0.32227-0.07764-0.58594-0.26416-0.7832   c-0.3125-0.33057-0.78174-0.3667-1.31787-0.37842C46.89782,4.35042,39.66051,4.326,31.49889,4.326   c-7.99902,0-26.79248,0.0249-28.54053,0.25195c-0.32178,0.0415-0.6582,0.09717-0.92822,0.27393   C1.57799,5.14778,1.54625,5.618,1.53209,5.81917z M15.39049,43.21761c-0.4693,0.84711-1.43524,2.10205-2.19922,2.35938   c-0.23486,0.08075-2.0282,0.11041-1.59082,0.09424c-0.28137,0-0.45245-0.30798-0.30029-0.55273   c2.07709-3.3479,4.01233-6.82837,5.77362-10.35565c0.96167-0.0061,1.9704-0.01257,3.01093-0.01929   C20.02184,34.85591,16.19664,41.63863,15.39049,43.21761z M21.23216,34.7361c2.62939-0.01709,5.40808-0.03546,8.09338-0.05389   l1.38367,2.49774c-0.99915-0.05432-2.0238-0.08734-3.13171-0.08734c-2.62079,0-5.25635,0.15417-7.8266,0.31744L21.23216,34.7361z    M17.687,41.13588c0.0589-0.1012,1.66718-2.86487,1.56726-2.69318c2.72949-0.1748,5.54443-0.3501,8.32324-0.3501   c1.19385,0,2.29883,0.03174,3.36719,0.0957l1.43555,2.40625C27.48577,40.60866,22.55162,40.79073,17.687,41.13588z    M39.29821,45.48909c-0.1424,0.25311-0.54572,0.18213-0.32422,0.18213c-1.27203-0.04065-1.40106-0.03339-1.58057-0.09521   c-0.04346-0.01465-0.08887-0.03564-0.13721-0.06396c-0.78564-0.46143-1.45947-1.21191-2.05908-2.29443l-4.73255-8.54327   c1.02332-0.00708,2.02417-0.01422,2.99317-0.02118C38.28777,44.34682,39.6007,44.9369,39.29821,45.48909z M45.40416,32.97395   c-0.37939,0.53076-1.26025,0.58594-2.05664,0.59619c-4.99902,0.06494-34.92285,0.24707-35.0835,0.24707   c-1.49023-0.04004-2.20801-0.20459-2.55859-0.58789c-0.57617-0.62891-0.47754-2.22656-0.29883-5.12646   c0.22021-3.57526,0.57294-9.41254-0.07172-18.48517C8.76256,9.28761,14.18773,9.1263,21.85875,9.1263   c4.23096,0,8.57422,0.0459,12.49024,0.0874c3.21631,0.03418,6.14453,0.06494,8.48535,0.06494   c0.85089,0,1.56537-0.00439,2.17792-0.01227c-0.28235,4.63049-0.00812,9.34851,0.27032,13.93658   c0.16357,2.70361,0.3335,5.49951,0.3833,8.23242C45.67711,32.03743,45.66491,32.60823,45.40416,32.97395z M2.53014,5.88704   c0.01172-0.1748,0.03076-0.1875,0.04834-0.19873c0.10059-0.06592,0.37598-0.10156,0.50879-0.11914   C4.25963,5.41731,14.88072,5.326,31.49889,5.326c8.15528,0,15.38281,0.02441,16.396,0.04639   c0.13135,0.00293,0.53076,0.01123,0.60449,0.12744c-0.02051,0.5874-0.08203,2.375-0.3667,2.59766   c-0.2251,0.08252-1.32666,0.18115-5.29834,0.18115c-2.33789,0-5.26221-0.03076-8.4751-0.06494   c-3.91895-0.0415-8.26612-0.0874-12.50049-0.0874c-8.74121,0-14.39307,0.19775-17.7876,0.62305   c-0.82373,0.104-1.46289-0.29492-1.49316-0.56982C2.49498,7.41682,2.47838,6.64534,2.53014,5.88704z"/><path d="M43.16344,25.95686c-0.30573-4.93665-0.7027-9.76923-0.44971-14.57813c0.00391-0.06934-0.02148-0.13721-0.06982-0.18701   c-0.04785-0.05029-0.09082-0.08887-0.18457-0.07617C5.59166,11.84822,7.85887,11.70424,7.71959,11.8553   c-0.04639,0.05029-0.06982,0.11719-0.06543,0.18555c0.08978,1.35791,0.14966,2.64606,0.19476,3.90948   c-0.02325,0.03595-0.05103,0.06976-0.05219,0.11688c-0.00153,0.06262,0.02551,0.11713,0.0625,0.1618   c0.05817,1.74091,0.07953,3.42584,0.06488,5.10016c-0.17157,0.10345-0.16949,0.28998-0.0022,0.39545   c-0.13171,11.18262-1.16913,9.83331,0.92218,9.83331c5.66406,0,31.90674-0.18848,34.31641-0.21729   c0.06689-0.00098,0.13086-0.02832,0.17725-0.07666c0.04639-0.04785,0.07129-0.11279,0.06982-0.1792   c-0.03888-1.59979-0.1275-3.21631-0.22534-4.82379C43.2658,26.15163,43.25426,26.05727,43.16344,25.95686z M42.65862,25.88783   c-1.64142,0.14276-3.24023,0.26691-4.80762,0.37524c0.06915-1.67365,0.11151-3.31232,0.125-4.96094   c1.43689-0.09998,2.88971-0.21051,4.37402-0.33984C42.43651,22.44038,42.42009,22.05635,42.65862,25.88783z M37.97692,20.80489   c0.00696-1.61633-0.01807-3.2561-0.0791-4.94928c1.39832-0.09735,2.81079-0.20477,4.25153-0.3302   c0.0199,1.6554,0.08374,3.30371,0.17523,4.93665C40.85198,20.59047,39.40276,20.7054,37.97692,20.80489z M32.45061,11.80635   c-0.2561,0.09827-0.15118,0.03448-0.01935,3.05054c-0.38971,0.14294-0.70996,0.30994-0.91535,0.84961   c-1.16168,0.05127-2.32098,0.09943-3.46979,0.13367c-0.00568-0.15637-0.13422-3.7619-0.24316-3.94519L32.45061,11.80635z    M33.67369,15.63167c4.10352,0-0.71204,4.91284-1.25684,1.32861C32.2744,16.02211,32.42046,15.63167,33.67369,15.63167z    M27.52037,23.00471c4.09607,0-0.71539,4.89185-1.25732,1.32861C26.12157,23.39375,26.26799,23.00471,27.52037,23.00471z    M25.27257,23.41322c-0.677-0.2121-1.40033-0.45435-2.10284-0.70099c0.00507-0.26984,0.02081-0.54541,0.02423-0.81506   c1.47321-0.01831,2.94659-0.04517,4.42706-0.08704c-0.00085,0.07129-0.00378,0.14343-0.00629,0.21539   C26.47154,21.99586,25.47801,22.2928,25.27257,23.41322z M28.81639,22.26118c-0.22351-0.08789-0.45764-0.15125-0.70282-0.18951   c0.00311-0.09259,0.00696-0.1853,0.00806-0.27704c0.34637-0.01044,0.69952-0.02905,1.04718-0.04114   C29.04985,21.92268,28.93291,22.09187,28.81639,22.26118z M28.12493,21.28932c0.01312-1.6192-0.00598-3.25623-0.06012-4.94385   c1.10242-0.0329,2.21521-0.08087,3.32941-0.13c-0.06274,0.60986,0.07074,1.46765,0.44696,2.08374   c-0.82306,0.95734-1.5882,1.94153-2.30334,2.93512C29.06816,21.25111,28.59221,21.27516,28.12493,21.28932z M27.62462,21.30287   c-1.47839,0.04193-2.95435,0.0722-4.42554,0.09064c0.01453-1.62177-0.00342-3.25958-0.05603-4.94745   c1.47266-0.01782,2.94458-0.04449,4.42169-0.08575C27.61876,18.04738,27.63793,19.68385,27.62462,21.30287z M27.40264,11.9026   c-0.10919,0.18311-0.0047-0.14185,0.14343,3.95099c-1.47571,0.0412-2.95026,0.07074-4.42163,0.0885   c-0.09668-2.73956-0.19794-3.85132-0.20404-3.95398L27.40264,11.9026z M22.4453,11.99715   c-0.03912,0.30847,0.05237,0.37244,0.17902,3.95087c-1.46875,0.01526-2.94403,0.02118-4.42456,0.01672   c-0.04413-1.25769-0.10333-2.54016-0.19128-3.883L22.4453,11.99715z M19.79088,22.38997   c-0.38574,0.45068-0.96924,0.75342-1.45215,0.75342c-1.18475,0-1.3302-2.18268-0.84766-2.4082   C18.91246,20.06831,21.02513,20.94337,19.79088,22.38997z M17.76665,19.61696c-0.93048,0.18402-1.52155,0.57684-1.52539,1.7865   c-0.96136-0.00708-1.92017-0.01263-2.89282-0.02679c0.01422-1.62286-0.00397-3.26239-0.05707-4.95245   c1.49005,0.02203,2.9632,0.03552,4.42645,0.04187C17.75115,17.53651,17.76164,18.57887,17.76665,19.61696z M15.67723,21.90016   c-0.91864,0.5163-1.57251,0.91064-2.38367,1.67297c0.01398-0.56207,0.04303-1.13348,0.05011-1.69421   C14.12877,21.89034,14.90221,21.89473,15.67723,21.90016z M17.5081,12.09132c0.08795,1.33948,0.14703,2.61823,0.19122,3.87286   c-1.46234-0.00635-2.93707-0.02026-4.42651-0.0423c-0.04315-1.21423-0.10089-2.45294-0.18481-3.74628L17.5081,12.09132z    M12.58763,12.18513c0.0838,1.28809,0.14124,2.5213,0.18439,3.73077c-1.4563-0.02307-2.93024-0.05225-4.42682-0.08691   c-0.04218-1.15405-0.09583-2.32782-0.17493-3.55963L12.58763,12.18513z M8.30803,25.85548   c0.0271,0.2691,0.05408,0.51105,0.18079,0.88495c-0.07111-0.0014-0.14105-0.00256-0.21368-0.00427   C8.28819,26.43855,8.29637,26.15004,8.30803,25.85548z M12.47386,31.0453c-2.19623,0.01007-3.80621,0.01465-4.42517,0.01068   c0.07965-1.32593,0.14563-2.58508,0.20294-3.82019c0.15808,0.00366,0.31024,0.00616,0.46478,0.00909   c0.78333,1.33618,2.4801,1.21405,3.6571,0.07166c0.10034,0.00201,0.20142,0.00427,0.29968,0.00586   C12.6165,28.53529,12.55144,29.76595,12.47386,31.0453z M9.536,24.80257c1.37433-0.64484,3.55328,0.18726,2.29834,1.65283   c-0.38672,0.45264-0.9707,0.75635-1.45313,0.75635C9.20238,27.21175,9.04979,25.02986,9.536,24.80257z M12.77837,24.0696   c-0.06543,0.06439-0.13605,0.12524-0.20197,0.18805c-0.88202-0.76434-2.48157-0.8208-3.46423-0.36084   c-0.31097,0.14539-0.6377,0.44128-0.76898,1.01807c0.03595-1.05261,0.06519-2.09607,0.07782-3.12952   c1.49506,0.03442,2.96619,0.06268,4.42249,0.08527C12.83434,22.59834,12.79906,23.33882,12.77837,24.0696z M8.42449,21.28468   c0.01361-1.62726-0.00647-3.2652-0.06128-4.95471c1.49774,0.03455,2.96991,0.06293,4.42725,0.08588   c0.05334,1.69098,0.0719,3.3313,0.05768,4.9549C11.3922,21.34804,9.91912,21.31917,8.42449,21.28468z M17.40111,31.01949   c-1.61395,0.00922-3.1142,0.01733-4.42639,0.02356c0.07727-1.27509,0.14221-2.50275,0.19873-3.71228   c1.49432,0.02252,2.966,0.0368,4.42279,0.04358C17.54051,28.56227,17.47679,29.76772,17.40111,31.01949z M17.61986,26.87563   c-1.45667-0.00665-2.92859-0.02173-4.42273-0.04425c0.0274-0.61829,0.03326-1.21808,0.05408-1.82831   c1.13-1.07141,1.26477-1.32385,3.18488-2.38123c0.23956,0.71887,0.6817,1.20917,1.26874,1.41101   C17.68266,24.97475,17.66271,25.91383,17.61986,26.87563z M22.32805,30.98994c-1.52448,0.00952-3.01385,0.01849-4.42609,0.02667   c0.0755-1.24963,0.13922-2.45386,0.19482-3.64032c0.38556,0.00128,0.77405,0.00439,1.15796,0.00439   c1.09375,0,2.1814-0.0069,3.26752-0.01807C22.46678,28.54475,22.40331,29.74464,22.32805,30.98994z M22.54595,26.86238   c-1.46808,0.01532-2.94092,0.01984-4.42554,0.01508c0.04132-0.9292,0.0603-1.83661,0.08185-2.74695   c0.90491,0.05878,1.784-0.43121,2.34839-1.09064c0.0506-0.05914,0.08582-0.12195,0.13031-0.18262   c0.57996,0.22986,1.25482,0.48157,1.96259,0.73218C22.61632,24.67506,22.5952,25.7549,22.54595,26.86238z M22.67497,22.53719   c-0.56744-0.20386-1.09955-0.40405-1.56982-0.58893c0.00214-0.01007,0.00446-0.02002,0.00647-0.03009   c0.44604-0.00305,0.96045-0.00751,1.58221-0.01422C22.69115,22.11342,22.67864,22.32765,22.67497,22.53719z M21.14531,21.40602   c-0.1076-1.36853-1.53088-1.94366-2.87677-1.85992c-0.00574-1.01398-0.01782-2.03326-0.05023-3.07813   c0.80011,0.00232,1.67877,0.01337,4.42462-0.0152c0.0528,1.68756,0.07074,3.32507,0.05621,4.94678   C22.18297,21.40517,21.66362,21.40462,21.14531,21.40602z M27.25517,30.95821c-1.47437,0.00977-2.96136,0.01935-4.42621,0.02856   c0.07513-1.24615,0.13867-2.44775,0.19403-3.63116c1.47443-0.0177,2.94836-0.04559,4.42914-0.08716   C27.39623,28.47054,27.33165,29.69148,27.25517,30.95821z M27.47576,26.76955c-1.48126,0.04187-2.95435,0.07031-4.4292,0.0882   c0.04645-1.04688,0.06512-2.06744,0.09198-3.09454c0.72125,0.24939,1.45325,0.48883,2.13391,0.69604   c0.04218,0.1026,0.21637,2.2774,2.20825,2.14178C27.47917,26.65712,27.47826,26.71254,27.47576,26.76955z M32.18285,30.9247   c-1.42462,0.00989-2.91419,0.02008-4.42676,0.03015c0.0766-1.26953,0.14148-2.49402,0.19733-3.69922   c1.46313-0.04388,2.94147-0.10461,4.43311-0.17535C32.32958,28.33156,32.26238,29.60414,32.18285,30.9247z M32.41014,26.58064   c-1.4931,0.07111-2.96851,0.12848-4.43292,0.17267c0.00348-0.07886,0.005-0.15582,0.00677-0.23315   c1.67346-0.46906,2.8985-2.41077,1.67065-3.71191c0.25476-0.36896,0.51483-0.73694,0.7818-1.10455   c0.70453-0.02808,1.40308-0.04932,2.11298-0.08307C32.53191,23.26497,32.48223,24.9045,32.41014,26.58064z M30.81957,21.18446   c0.54523-0.73083,1.11945-1.45154,1.72388-2.15759c0.00757,0.70129,0.01166,1.3988,0.00696,2.09021   C31.96892,21.14479,31.39751,21.1609,30.81957,21.18446z M37.11016,30.8896c-1.34271,0.00989-2.83691,0.02051-4.42633,0.03162   c0.07983-1.32709,0.14746-2.60675,0.20447-3.8645c1.45642-0.07196,2.93298-0.15698,4.43713-0.25763   C37.26665,28.12856,37.19481,29.48341,37.11016,30.8896z M37.34923,26.29652c-1.50403,0.10095-2.98114,0.18707-4.43726,0.25934   c0.07166-1.67505,0.12048-3.31384,0.13763-4.95813c1.45667-0.0722,2.93231-0.15979,4.42603-0.26068   C37.46166,22.9847,37.41875,24.62257,37.34923,26.29652z M33.05053,21.09523c0.00415-0.62836-0.00043-1.26312-0.00665-1.89984   c1.66937,0.37451,3.82739-1.50793,3.10229-3.23132c0.41577-0.02319,0.83008-0.04517,1.25232-0.07367   c0.06073,1.69147,0.08545,3.32977,0.07806,4.94507C35.98217,20.9366,34.50786,21.02278,33.05053,21.09523z M37.43981,11.77473   c-0.1377,0.00928-0.24219,0.12842-0.23291,0.26611c0.07635,1.1543,0.12964,2.26038,0.17316,3.34949   c-0.51837,0.0351-1.02643,0.06158-1.53662,0.08978c-0.6593-0.74341-1.89722-0.9585-2.91449-0.76251   c-0.11584-2.98383-0.13818-2.85339-0.32672-2.91412l9.59882-0.18304c-0.0542,1.1358-0.06824,2.27069-0.06189,3.4035   c-1.44098,0.12555-2.86121,0.23846-4.25964,0.336C37.74212,11.9333,37.75963,11.72523,37.43981,11.77473z M37.61113,30.88588   c0.08521-1.41675,0.15784-2.78253,0.21667-4.12225c1.58612-0.10925,3.19995-0.2326,4.86182-0.37714   c0.0899,1.48627,0.17114,2.97894,0.21161,4.45709C42.0844,30.85176,40.15758,30.86702,37.61113,30.88588z"/></g><text x="0" y="66" fill="#000000" font-size="5px" font-weight="bold" font-family="'Helvetica Neue', Helvetica, Arial-Unicode, Arial, Sans-serif">Created by Vectors Point</text><text x="0" y="71" fill="#000000" font-size="5px" font-weight="bold" font-family="'Helvetica Neue', Helvetica, Arial-Unicode, Arial, Sans-serif">from the Noun Project</text></svg>