<svg xmlns:dc="http://purl.org/dc/elements/1.1/" xmlns:cc="http://creativecommons.org/ns#" xmlns:rdf="http://www.w3.org/1999/02/22-rdf-syntax-ns#" xmlns:svg="http://www.w3.org/2000/svg" xmlns="http://www.w3.org/2000/svg" xmlns:sodipodi="http://sodipodi.sourceforge.net/DTD/sodipodi-0.dtd" xmlns:inkscape="http://www.inkscape.org/namespaces/inkscape" viewBox="0 0 237.98701 622.8779" version="1.1" x="0px" y="0px"><g transform="translate(-241.396,-344.7054)"><path style="" d="m 360.41,344.7054 c -65.742,0 -119.014,53.2727 -119.014,119.0141 0,55.05424 37.449,101.24324 88.194,114.78904 l 30.82,264.4992 30.779,-264.4992 c 50.787,-13.5873 88.194,-59.7764 88.194,-114.78904 0,-65.7414 -53.273,-119.0141 -118.973,-119.0141 z m 48.302,130.61344 c -17.233,0 -31.235,-13.96034 -31.235,-31.19334 0,-17.2744 14.002,-31.2344 31.235,-31.2344 17.233,0 31.234,13.96 31.234,31.2344 0,17.233 -14.001,31.19334 -31.234,31.19334 z" fill="#000000"/></g></svg>