<svg xmlns="http://www.w3.org/2000/svg" xmlns:xlink="http://www.w3.org/1999/xlink" version="1.1" x="0px" y="0px" viewBox="0 0 100 125" enable-background="new 0 0 100 100" xml:space="preserve"><g display="none"><rect x="-733.154" y="-724.111" display="inline" fill="#000000" stroke="#000000" stroke-width="2" stroke-miterlimit="10" width="1220.154" height="969.87"/></g><g><circle cx="43.85" cy="21.153" r="3.067"/><circle cx="33.968" cy="21.153" r="3.067"/><path d="M16.394,80.241L16.394,80.241c0-3.674,2.988-6.662,6.662-6.662c3.673,0,6.661,2.988,6.661,6.662v0h1.243h1.626h1.243v0   c0-3.674,2.988-6.662,6.662-6.662c3.673,0,6.661,2.988,6.661,6.662v0h0.298h2.571h0.298v0c0-3.674,2.988-6.662,6.661-6.662   c3.674,0,6.662,2.988,6.662,6.662v0h1.243h1.626h1.243v0c0-3.674,2.988-6.662,6.661-6.662c3.674,0,6.662,2.988,6.662,6.662v0h2.869   c0-0.94-0.142-1.846-0.397-2.705c-1.169-3.942-4.819-6.827-9.135-6.827c-3.733,0-6.963,2.163-8.525,5.297V32.434   c0-4.557,0-10.228-1.701-14.942c-2.174-6.024-6.656-9.079-13.323-9.079H31.75c-7.871,0-14.619,5.944-15.364,13.533   c-0.413,4.213,0.982,8.43,3.827,11.567c2.853,3.146,6.907,4.949,11.125,4.949h3.404v34.195c-1.281,0.974-2.311,2.258-2.969,3.748   c-1.48-3.349-4.827-5.694-8.717-5.694c-4.316,0-7.966,2.885-9.135,6.827c-0.255,0.858-0.397,1.765-0.397,2.705H16.394z    M31.338,34.831c-3.195,0-6.27-1.37-8.435-3.758c-2.189-2.415-3.221-5.531-2.902-8.774c0.563-5.751,5.725-10.256,11.749-10.256   h19.116c5.114,0,8.263,2.123,9.907,6.681c1.486,4.118,1.486,9.437,1.486,13.71v39.878c-1.513-1.01-3.328-1.602-5.279-1.602   c-3.521,0-6.595,1.924-8.245,4.772c-1.65-2.848-4.724-4.772-8.245-4.772c-0.729,0-1.436,0.09-2.118,0.245V34.831H31.338z"/><path d="M92.974,88.877c-1.171-3.938-4.819-6.82-9.132-6.82c-3.464,0-6.493,1.863-8.162,4.634   c-1.669-2.771-4.698-4.634-8.161-4.634c-3.891,0-7.239,2.346-8.718,5.694c-1.48-3.349-4.827-5.694-8.717-5.694   c-3.522,0-6.595,1.924-8.246,4.772c-1.65-2.847-4.724-4.772-8.245-4.772c-3.89,0-7.238,2.346-8.717,5.694   c-1.48-3.348-4.828-5.694-8.718-5.694c-4.313,0-7.961,2.883-9.132,6.821c-0.256,0.86-0.398,1.768-0.398,2.71h0.398h1.036h1.435   c0-3.673,2.988-6.661,6.661-6.661c3.674,0,6.662,2.988,6.662,6.661h1.243h0.191h1.243h0.192h1.243c0-3.673,2.988-6.661,6.661-6.661   s6.661,2.988,6.661,6.661h0.298h1.137h0.297h1.137h0.298c0-3.673,2.988-6.661,6.662-6.661c3.673,0,6.661,2.988,6.661,6.661h1.243   h0.191h1.243h0.191h1.243c0-3.673,2.988-6.661,6.662-6.661c3.673,0,6.661,2.988,6.661,6.661h0.131h1.304h0.131h1.304h0.131   c0-3.673,2.988-6.661,6.662-6.661c3.673,0,6.661,2.988,6.661,6.661h1.435h1.036h0.398C93.373,90.646,93.23,89.737,92.974,88.877z"/></g><text x="0" y="115" fill="#000000" font-size="5px" font-weight="bold" font-family="'Helvetica Neue', Helvetica, Arial-Unicode, Arial, Sans-serif">Created by Oksana Latysheva</text><text x="0" y="120" fill="#000000" font-size="5px" font-weight="bold" font-family="'Helvetica Neue', Helvetica, Arial-Unicode, Arial, Sans-serif">from the Noun Project</text></svg>