<svg xmlns="http://www.w3.org/2000/svg" xmlns:xlink="http://www.w3.org/1999/xlink" version="1.1" x="0px" y="0px" viewBox="0 0 52 65" enable-background="new 0 0 52 52" xml:space="preserve"><g><rect x="2.041687" y="49.3483276" width="47.916626" height="2"/><path d="M9.7683105,10.6516724h-4c-1.0999756,0-2,0.9000244-2,2v36h6V10.6516724z"/><path d="M47.7683105,12.6516724c0-1.0999756-0.9000244-2-2-2h-4v38h6V12.6516724z"/><path d="M39.7683105,6.6516724H34.708313c0.039978,0.3300781,0.0599976,0.6600342,0.0599976,1c0,4.9599609-4.039978,9-9,9   s-9-4.0400391-9-9c0-0.3399658,0.0200195-0.6699219,0.0599976-1h-5.0599976v42h28V6.6516724z M19.7683105,44.6516724h-6v-7h6   V44.6516724z M19.7683105,34.6516724h-6v-7h6V34.6516724z M19.7683105,24.6516724h-6v-7h6V24.6516724z M28.7683105,44.6516724h-6   v-7h6V44.6516724z M28.7683105,34.6516724h-6v-7h6V34.6516724z M28.7683105,24.6516724h-6v-7h6V24.6516724z M37.7683105,44.6516724   h-6v-7h6V44.6516724z M37.7683105,34.6516724h-6v-7h6V34.6516724z M37.7683105,24.6516724h-6v-7h6V24.6516724z"/><path d="M27.1303101,9.0459595c0-0.2171631-0.0683594-0.3902588-0.2050171-0.5178223   c-0.1373901-0.126709-0.3924561-0.2468262-0.7652588-0.3591309v1.6794434   c0.2984009-0.03125,0.5344849-0.1176758,0.7091064-0.2612305C27.0429688,9.444397,27.1303101,9.2637329,27.1303101,9.0459595z"/><path d="M25.5633545,5.2492065c-0.2801514,0.0250244-0.4995728,0.1077881-0.6582642,0.2474365   C24.74646,5.6364136,24.6674805,5.8110962,24.6674805,6.019104c0,0.2087402,0.0622559,0.3726807,0.1867676,0.4941406   c0.1237793,0.12146,0.3605957,0.2384033,0.7091064,0.3499756V5.2492065z"/><path d="M25.7683105,14.6516724c3.8599854,0,7-3.1400146,7-7c0-0.340332-0.0326538-0.6724854-0.079834-1   c-0.487793-3.3867188-3.4005737-6-6.920166-6s-6.432373,2.6132813-6.920166,6c-0.0471802,0.3275146-0.079834,0.659668-0.079834,1   C18.7683105,11.5116577,21.9083252,14.6516724,25.7683105,14.6516724z M24.019165,7.3484497   C23.692688,7.0750122,23.52948,6.6688843,23.52948,6.1306763c0-0.5375977,0.1875-0.9779053,0.5640869-1.3195801   c0.3765259-0.3422852,0.8662109-0.5290527,1.4697876-0.5603027V3.784729h0.5966797v0.4760742   c0.684021,0.0493164,1.3308716,0.2832031,1.9404907,0.6992188l-0.6065674,0.8586426   c-0.4107666-0.2923584-0.8548584-0.4730225-1.3339233-0.5413818v1.7537842h0.0280762   c0.71521,0.1677246,1.2405396,0.3955078,1.5761108,0.6809082c0.3363037,0.2862549,0.5040894,0.7015381,0.5040894,1.2458496   c0,0.5444336-0.1928101,0.9869385-0.5784912,1.3293457c-0.3856812,0.3415527-0.8950806,0.5283203-1.5297852,0.5595703v0.671875   h-0.5966797v-0.6810303c-0.8526001-0.0872803-1.6178589-0.4259033-2.2950439-1.017334l0.6809692-0.8115234   c0.5223389,0.4539795,1.0598145,0.7249756,1.6140747,0.8115234V8.0103149   C24.8603516,7.8425903,24.3455811,7.6223755,24.019165,7.3484497z"/></g></svg>