<svg xmlns="http://www.w3.org/2000/svg" xmlns:xlink="http://www.w3.org/1999/xlink" version="1.1" x="0px" y="0px" viewBox="0 0 66 82.5" enable-background="new 0 0 66 66" xml:space="preserve"><g><path d="M19.2631187,3c2.1385098,0,3.4708481,2.2508793,2.5205078,4.0761719   c-1.705946-0.3771944-3.4615154-0.3540235-5.0341797-0.0009766C15.803834,5.2208691,17.1523972,3,19.2631187,3z    M16.5902672,9.1796875c1.3088379-0.380127,2.685791-0.4737549,4.0213013-0.2850952   c0.4459229,0.0632324,0.8882446,0.1582031,1.3233643,0.284668c3.9266357,1.1800537,6.6690063,4.8589478,6.6690063,8.9481812   c0,0.2915039-0.0087891,0.5830078-0.0390625,0.8813477l-0.4775391,5.1494141H10.4398775l-0.4775391-5.1489258   C9.5541353,14.5834961,12.3441744,10.4482422,16.5902672,9.1796875z M31.7885094,52.1186523H6.7387056l1.3515625-19.9858398   h22.3466644L31.7885094,52.1186523z M4.9691744,28.1459961c0-1.0957031,0.8916016-1.9873047,1.9873047-1.9873047h24.6142578   c1.0957031,0,1.9873047,0.8916016,1.9873047,1.9873047s-0.8916016,1.9868164-1.9873047,1.9868164h-0.1992188H7.1556978H6.9564791   C5.8607759,30.1328125,4.9691744,29.2416992,4.9691744,28.1459961z M6.2172213,54.1186523h26.0859375l2.2441406,3.6098633   H3.9730804L6.2172213,54.1186523z M36.5248375,63H1.9955413v-1.6899414l0.7949219-1.581543h32.9589844l0.7753906,1.4379883V63z"/><g><path d="M64.0044556,51.2000122c0,1.75-1.4199867,3.1699829-3.1699867,3.1699829c-1.4299927,0-2.6400146-0.9500122-3.0300293-2.25    h-3.5299683c-0.2200317,0-0.4400024-0.0800171-0.6199951-0.2200317l-5.8300171-4.6399536h-9.0499878c-0.5500488,0-1-0.4500122-1-1    c0-0.5500488,0.4499512-1,1-1h9.3999634c0.2200317,0,0.4400024,0.0699463,0.6199951,0.2199707l5.8300171,4.6400146h3.2299805    c0.4400024-1.2200317,1.6100464-2.1000366,2.9800415-2.1000366    C62.5844688,48.0199585,64.0044556,49.4500122,64.0044556,51.2000122z"/><path d="M37.7744713,33.4400024c0-0.5499878,0.4499512-1,1-1h9.0499878l5.8300171-4.6400146    c0.1799927-0.1400146,0.3999634-0.2200317,0.6199951-0.2200317h3.5199585    c0.4000244-1.2999878,1.6100464-2.2599487,3.0400391-2.2599487c1.75,0,3.1699867,1.4299927,3.1699867,3.1699829    c0,1.7600098-1.4199867,3.1799927-3.1699867,3.1799927c-1.3699951,0-2.5400391-0.8699951-2.9800415-2.0900269h-3.2299805    l-5.8300171,4.6400146c-0.1799927,0.1400146-0.3999634,0.2200317-0.6199951,0.2200317h-9.3999634    C38.2244225,34.4400024,37.7744713,33.9899902,37.7744713,33.4400024z"/><path d="M37.7744713,40.0799561c0-0.5599976,0.4499512-1,1-1h15.9199829    c0.4199829-1.2699585,1.6099854-2.1799927,3.0100098-2.1799927c1.7399902,0,3.1699829,1.4299927,3.1699829,3.1799927    S59.4444542,43.25,57.704464,43.25c-1.4000244,0-2.5900269-0.9100342-3.0100098-2.1700439H38.7744713    C38.2244225,41.0799561,37.7744713,40.6300049,37.7744713,40.0799561z"/><path d="M37.7744713,27.2600098c0-0.5500488,0.4499512-1,1-1h8.789978l3.0200195-3.3800049    c-0.2700195-0.4700317-0.4200439-1-0.4200439-1.5800171c0-1.7399902,1.4200439-3.1699829,3.1700439-3.1699829    s3.1699829,1.4299927,3.1699829,3.1699829c0,1.7600098-1.4199829,3.1799927-3.1699829,3.1799927    c-0.4500122,0-0.8699951-0.0899658-1.2600098-0.2600098l-3.3200073,3.7000122    c-0.1900024,0.2200317-0.460022,0.3400269-0.7399902,0.3400269h-9.2399902    C38.2244225,28.2600098,37.7744713,27.8099976,37.7744713,27.2600098z"/><path d="M56.5044518,58.3900146c0,1.75-1.4199829,3.1699829-3.1699829,3.1699829s-3.1700439-1.4199829-3.1700439-3.1699829    c0-0.5700073,0.1500244-1.1000366,0.4200439-1.5700073l-3.0200195-3.3800049h-8.789978c-0.5500488,0-1-0.4500122-1-1    s0.4499512-1,1-1h9.2399902c0.2799683,0,0.5499878,0.1199951,0.7399902,0.3299561l3.3200073,3.710022    c0.3900146-0.1799927,0.8099976-0.2700195,1.2600098-0.2700195    C55.0844688,55.2099609,56.5044518,56.6400146,56.5044518,58.3900146z"/></g></g><text x="0" y="81" fill="#000000" font-size="5px" font-weight="bold" font-family="'Helvetica Neue', Helvetica, Arial-Unicode, Arial, Sans-serif">Created by Vectors Point</text><text x="0" y="86" fill="#000000" font-size="5px" font-weight="bold" font-family="'Helvetica Neue', Helvetica, Arial-Unicode, Arial, Sans-serif">from the Noun Project</text></svg>