<svg xmlns="http://www.w3.org/2000/svg" xmlns:xlink="http://www.w3.org/1999/xlink" version="1.1" x="0px" y="0px" viewBox="0 0 100 125" style="enable-background:new 0 0 100 100;" xml:space="preserve"><style type="text/css">
	.st0{fill:#231F20;}
</style><path class="st0" d="M68.5,35.7c9.1,0,14.6-9,14.6-17.6c0-8.8-5.7-14.6-14.6-14.6S53.9,9.3,53.9,18.1C53.9,26.8,59.4,35.7,68.5,35.7  z"/><path class="st0" d="M99.3,47.8c0-8.5-6.4-15.5-14.8-16.2l-1.2-0.1l-0.7,1c-3.4,5.2-8.4,8.1-14.2,8.1s-10.8-2.9-14.2-8.1l-0.7-1  l-1.2,0.1c-8.4,0.8-14.8,7.8-14.8,16.2V48H3v49h79V65.3h17.3V47.8z M78,93H7V52h71V93z M95.3,61.3H82V48H41.7v-0.2  c0-6,4.2-11,10-12.1c4.1,5.7,10.1,8.9,16.8,8.9s12.7-3.1,16.8-8.9c5.8,1.1,10,6.1,10,12.1V61.3z"/><path class="st0" d="M32,58H13v19h19V58z"/><rect x="12.8" y="82.8" class="st0" width="57" height="4"/><rect x="37.3" y="72.8" class="st0" width="32.5" height="4"/><rect x="37.3" y="57.8" class="st0" width="32.5" height="4"/><path class="st0" d="M9.5,33.2l3.9,0.8l1.2-5.6h6.2l-1,4.8l3.9,0.8l1.2-5.6h5.6v-4h-4.8l1.3-6.3h5.6v-4h-4.8l1-4.8L25,8.5l-1.2,5.6  h-6.2l1-4.8l-3.9-0.8l-1.2,5.6H7.9v4h4.8l-1.3,6.3H5.8v4h4.8L9.5,33.2z M16.7,18.1H23l-1.3,6.3h-6.2L16.7,18.1z"/><text x="0" y="115" fill="#000000" font-size="5px" font-weight="bold" font-family="'Helvetica Neue', Helvetica, Arial-Unicode, Arial, Sans-serif">Created by Icons Producer</text><text x="0" y="120" fill="#000000" font-size="5px" font-weight="bold" font-family="'Helvetica Neue', Helvetica, Arial-Unicode, Arial, Sans-serif">from the Noun Project</text></svg>